# xmcd
#
# Track frame offsets:
#	150
#	19005
#	37560
#	51127
#	67008
#	76075
#	96354
#	116259
#	133014
#	149968
#	167134
#
# Disc length: 2491 seconds
#
# Revision: 0
# Processed by: cddbd v1.4PL0 Copyright (c) Steve Scherf et al.
# Submitted via: audiograbber 1.81.01
#
DISCID=9009b90b
DTITLE=Renato Zero - Trapezio
DYEAR=1900
DGENRE=pop
TTITLE0=Il Caos
TTITLE1=No, Mamma, No!
TTITLE2=Metro
TTITLE3=Inventi
TTITLE4=Una Sedia a Ruote
TTITLE5=Motel
TTITLE6=Scegli Adesso Oppure Mai ...
TTITLE7=Un Uomo da Bruciare
TTITLE8=Hanno Arrestato Paperino
TTITLE9=Madame
TTITLE10=Salvami!
EXTD=
EXTT0=
EXTT1=
EXTT2=
EXTT3=
EXTT4=
EXTT5=
EXTT6=
EXTT7=
EXTT8=
EXTT9=
EXTT10=
PLAYORDER=
